<?xml version="1.0" standalone="no"?>
<!DOCTYPE svg PUBLIC "-//W3C//DTD SVG 20010904//EN"
 "http://www.w3.org/TR/2001/REC-SVG-20010904/DTD/svg10.dtd">
<svg version="1.0" xmlns="http://www.w3.org/2000/svg"
 width="1648.000000pt" height="1648.000000pt" viewBox="0 0 1648.000000 1648.000000"
 preserveAspectRatio="xMidYMid meet">
<metadata>
Created by potrace 1.11, written by Peter Selinger 2001-2013
</metadata>
<g transform="translate(0.000000,1648.000000) scale(0.100000,-0.100000)"
fill="#000000" stroke="none">
<path d="M7594 12773 l53 -158 599 -3 599 -2 49 147 c27 82 51 154 53 161 4 9
-140 12 -700 12 l-705 0 52 -157z"/>
<path d="M7613 12552 c-105 -55 -143 -78 -218 -132 -186 -134 -353 -334 -452
-541 -31 -65 -90 -226 -98 -271 -34 -174 -39 -224 -39 -371 1 -77 5 -121 12
-126 6 -4 201 -7 433 -6 l422 0 40 110 c21 61 65 186 98 280 l59 170 -34 35
c-31 31 -34 41 -34 88 1 51 3 54 45 83 70 48 137 75 268 106 39 9 240 9 275 0
94 -24 119 -32 175 -59 34 -15 76 -40 94 -56 29 -24 32 -33 33 -81 0 -46 -4
-57 -31 -85 l-32 -33 91 -264 c49 -145 94 -271 99 -279 7 -13 66 -15 430 -15
390 0 424 1 432 17 5 9 9 77 9 150 1 222 -41 402 -142 608 -133 274 -348 503
-606 642 l-87 48 -605 -1 c-550 0 -608 -2 -637 -17z"/>
<path d="M8067 11929 c-77 -19 -162 -55 -204 -87 -14 -11 -24 -31 -26 -54 -3
-31 1 -42 33 -75 20 -22 34 -46 32 -54 -5 -16 -40 -119 -132 -379 l-61 -175
-2 -258 c-2 -222 0 -257 13 -258 20 -1 985 -1 1032 0 l37 1 0 250 0 250 -64
182 c-34 101 -77 224 -95 273 -18 50 -34 98 -37 108 -4 12 6 31 29 55 49 52
51 101 5 136 -122 94 -367 131 -560 85z m323 -84 c5 -3 19 -8 31 -10 31 -6
105 -44 119 -60 23 -28 -1 -34 -37 -9 -50 34 -124 55 -218 61 -100 7 -182 -8
-262 -48 -72 -35 -103 -30 -49 8 42 28 102 51 166 63 48 9 233 6 250 -5z"/>
<path d="M6692 11881 c-15 -9 -21 -42 -27 -161 -3 -58 -8 -134 -10 -170 -14
-170 -28 -394 -29 -450 -1 -31 4 -37 35 -53 30 -14 41 -15 70 -5 19 6 37 16
42 22 4 6 5 81 2 166 -3 85 -8 232 -11 325 -3 94 -7 200 -8 237 -1 38 -7 73
-14 80 -14 14 -35 18 -50 9z"/>
<path d="M9755 11876 c-18 -13 -21 -51 -30 -361 -3 -115 -8 -262 -11 -326 -4
-107 -3 -117 16 -134 26 -23 80 -24 115 -1 25 17 26 20 21 79 -8 82 -15 180
-21 301 -3 55 -7 120 -10 145 -2 25 -7 96 -10 156 -3 61 -8 117 -11 126 -6 22
-39 30 -59 15z"/>
<path d="M6868 11072 c-70 -4 -79 -21 -47 -83 19 -39 21 -58 21 -216 0 -104 3
-175 9 -179 13 -8 808 -8 816 0 7 7 7 465 0 473 -6 6 -697 10 -799 5z"/>
<path d="M8820 10830 l0 -240 28 -1 c28 -1 647 0 743 1 l56 0 1 181 c2 166 4
184 23 215 14 23 19 43 15 59 l-6 25 -430 0 -430 0 0 -240z"/>
<path d="M6740 11010 c-14 -4 -43 -5 -66 -3 -39 4 -41 3 -60 -38 -16 -37 -19
-67 -19 -211 0 -162 0 -168 20 -169 24 -1 154 -1 176 0 13 1 15 25 16 173 1
158 0 175 -20 213 -19 36 -25 41 -47 35z"/>
<path d="M9710 10987 c-24 -39 -22 -18 -24 -224 -1 -149 1 -173 14 -174 18 -1
134 -1 170 0 l26 1 -1 174 c0 153 -3 178 -20 210 -19 35 -22 37 -57 32 -20 -3
-48 -2 -63 4 -23 9 -28 6 -45 -23z"/>
<path d="M4 10495 c-2 -5 -3 -1139 -2 -2520 l3 -2510 3255 -1 c1790 0 3260 1
3265 3 7 2 10 841 10 2521 l0 2517 -3264 0 c-2168 0 -3265 -3 -3267 -10z"/>
<path d="M6609 10475 c0 -43 0 -1550 0 -1610 l1 -50 180 0 180 0 1 75 c0 41 1
186 1 321 l0 247 171 -2 172 -1 1 -313 c1 -172 4 -316 8 -319 4 -4 111 -8 238
-8 189 0 231 2 236 14 3 8 5 152 5 322 l0 307 171 -1 171 -2 0 -320 0 -320 90
0 90 0 3 321 2 322 170 0 170 0 1 -37 c0 -20 1 -163 1 -318 0 -156 3 -284 7
-284 3 -1 108 -2 234 -3 l227 -1 1 30 c0 16 1 161 1 321 l1 291 171 -1 171 -1
0 -312 c0 -171 4 -315 8 -320 5 -4 93 -8 196 -8 l188 0 0 845 0 845 -1633 0
-1634 0 -1 -30z m1935 -705 c143 -55 262 -102 264 -105 3 -3 1 -10 -4 -15 -7
-7 -104 26 -294 100 -156 60 -287 110 -291 110 -8 0 -481 -194 -517 -212 -19
-10 -25 -9 -32 2 -5 8 -8 16 -6 17 1 1 112 48 247 103 134 55 258 106 274 114
25 11 36 11 65 0 19 -7 152 -58 294 -114z m-1248 49 c52 -23 164 -129 164
-154 0 -24 -26 -17 -45 13 -27 40 -74 81 -130 110 -43 23 -62 26 -140 26 -78
0 -97 -3 -141 -26 -53 -28 -108 -75 -137 -118 -13 -18 -20 -21 -28 -13 -26 26
89 137 177 172 83 33 191 29 280 -10z m2167 -1 c92 -43 206 -168 153 -168 -7
0 -22 12 -32 28 -26 40 -72 79 -129 110 -43 23 -62 26 -140 27 -76 0 -98 -4
-138 -25 -49 -25 -109 -76 -139 -118 -12 -18 -20 -22 -33 -15 -14 8 -10 17 31
62 86 96 165 131 287 129 64 -1 89 -6 140 -30z"/>
<path d="M9949 10480 c0 -36 0 -4993 0 -5005 1 -7 1095 -10 3266 -10 l3265 0
0 2520 0 2520 -3265 0 -3265 0 -1 -25z"/>
<path d="M6609 8745 c0 -50 0 -1213 0 -1240 1 -21 6 -21 326 -16 l40 1 -2 262
c-2 260 -2 263 22 314 49 100 170 128 257 59 59 -48 62 -66 64 -358 0 -147 4
-270 7 -273 5 -5 239 -7 437 -5 l45 1 -2 257 c-1 266 3 305 40 354 20 28 74
56 117 63 41 5 93 -14 127 -46 54 -52 59 -84 58 -370 l0 -258 25 -1 c69 -2
141 0 149 5 5 3 9 123 9 265 0 247 1 262 22 305 64 133 235 134 302 3 19 -39
20 -56 20 -309 l0 -268 37 -1 c59 0 332 0 386 0 l50 1 -2 252 c0 139 3 271 9
293 13 56 52 96 111 116 92 31 165 -2 205 -91 13 -28 16 -84 18 -295 1 -143 2
-264 3 -270 1 -9 42 -10 337 -6 l51 1 0 645 c0 459 -3 645 -11 646 -6 0 -741
1 -1634 2 l-1622 2 -1 -40z m1823 -225 c10 -5 26 -10 36 -10 10 0 22 -4 28 -9
5 -4 78 -34 162 -66 83 -32 152 -59 152 -60 0 -21 -14 -33 -28 -24 -10 5 -140
56 -291 114 l-274 106 -191 -80 c-369 -153 -347 -145 -357 -130 -4 7 -7 14 -6
15 2 2 184 77 367 151 47 19 107 44 135 57 l49 23 101 -39 c55 -21 108 -42
117 -48z m-1188 -12 c201 -124 217 -135 203 -146 -10 -8 -30 0 -77 30 -36 22
-103 64 -150 93 l-85 51 -140 -92 c-106 -70 -143 -90 -153 -82 -10 8 22 34
135 109 81 54 152 99 157 99 5 0 54 -28 110 -62z m2113 34 c24 -15 92 -58 153
-95 60 -38 110 -72 110 -77 0 -24 -28 -12 -161 70 -79 49 -149 90 -154 90 -6
0 -71 -40 -145 -89 -102 -68 -138 -87 -148 -79 -10 9 21 34 135 109 81 54 153
98 158 98 6 0 29 -13 52 -27z"/>
<path d="M6609 7410 c-2 -97 0 -213 4 -217 4 -3 2159 -6 3083 -3 l182 0 -2
133 -1 132 -1632 0 -1633 0 -1 -45z"/>
<path d="M6613 7153 c-6 -2 -9 -1540 -4 -1673 1 -13 74 -15 609 -15 l607 0 2
525 c1 289 4 541 7 561 17 108 112 212 237 261 73 28 250 31 325 5 106 -37
194 -123 231 -227 18 -52 19 -85 19 -587 -1 -466 1 -532 14 -535 8 -2 285 -4
615 -3 l600 0 0 845 0 845 -1627 0 c-895 0 -1631 -1 -1635 -2z m617 -382 c23
-12 44 -35 61 -68 l26 -49 -1 -305 -1 -304 -170 0 -170 0 -2 290 c-1 166 3
308 9 331 18 78 106 138 183 127 17 -2 46 -12 65 -22z m2171 -2 c30 -15 45
-34 66 -79 14 -30 17 -80 17 -341 l1 -306 -170 1 -170 1 0 310 c0 347 2 357
71 404 59 40 122 44 185 10z"/>
<path d="M12982 4915 c-11 -17 -8 -1346 3 -1354 12 -10 1 -9 222 -16 145 -5
194 -3 245 10 34 8 71 17 80 20 57 13 136 94 166 170 46 114 54 431 14 561
-29 96 -70 150 -135 179 -109 50 -213 51 -389 4 -43 -12 -81 -19 -85 -18 -5 2
-9 101 -9 219 -1 118 -2 220 -3 226 -1 13 -100 13 -109 -1z m483 -509 c74 -14
128 -91 144 -208 11 -83 7 -279 -8 -349 -23 -110 -93 -176 -208 -197 -48 -8
-221 -7 -268 2 -11 3 -22 5 -25 5 -3 1 -5 157 -5 347 0 298 2 347 15 354 19
11 165 48 205 52 40 4 108 2 150 -6z"/>
<path d="M2395 4880 c-3 -5 -8 -91 -6 -122 1 -15 11 -18 60 -18 l59 0 1 70 c1
70 1 70 -27 71 -15 0 -40 2 -55 3 -16 1 -30 -1 -32 -4z"/>
<path d="M12531 4882 c-7 -2 -11 -30 -11 -73 l0 -69 59 0 59 0 -1 70 c0 43 -4
70 -11 71 -62 4 -85 4 -95 1z"/>
<path d="M49 4833 c-5 -418 1 -986 11 -1023 35 -130 111 -206 245 -246 93 -28
316 -26 411 3 123 39 191 104 230 221 22 64 22 76 22 577 l0 511 -59 2 -59 1
0 -32 c-1 -17 -2 -248 -3 -512 -2 -463 -3 -482 -23 -525 -36 -79 -114 -132
-212 -146 -160 -23 -302 4 -368 70 -30 29 -64 96 -69 137 -3 19 -6 251 -6 516
-1 539 7 489 -76 492 l-43 2 -1 -48z"/>
<path d="M9210 4219 c0 -520 3 -659 13 -660 13 -1 87 -1 100 0 4 1 7 266 7
590 0 391 3 592 10 596 13 8 12 11 170 -420 73 -198 162 -441 199 -540 l67
-180 71 -2 72 -1 61 166 c33 92 65 176 70 187 5 11 54 144 110 295 181 492
183 498 196 493 9 -3 12 -148 11 -595 l0 -592 54 1 c30 1 57 2 61 2 3 1 6 297
6 659 l0 659 -108 0 c-108 0 -109 0 -119 -26 -6 -14 -72 -192 -147 -396 -181
-492 -213 -578 -239 -654 -12 -35 -25 -59 -28 -55 -5 8 -137 364 -222 599
-128 352 -188 511 -196 521 -5 6 -50 11 -114 11 l-105 1 0 -659z"/>
<path d="M1727 4524 c-1 -1 -24 -4 -52 -8 -77 -9 -120 -22 -238 -71 -10 -4
-17 -4 -16 1 1 5 1 21 0 36 -1 25 -3 26 -53 23 -29 -2 -56 -4 -59 -4 -4 -1 -6
-212 -6 -471 0 -469 0 -470 21 -471 32 -3 90 2 95 6 2 3 4 178 4 389 l0 384
56 25 c158 70 340 70 403 0 47 -52 52 -89 56 -453 2 -190 5 -346 6 -348 3 -3
62 -5 93 -3 l21 1 -2 343 c-3 365 -9 422 -59 509 -21 38 -73 80 -113 92 -23 7
-153 24 -157 20z"/>
<path d="M4108 4525 c-2 -1 -34 -5 -71 -8 -119 -10 -212 -66 -266 -161 -49
-84 -63 -154 -66 -318 -6 -271 47 -398 193 -466 54 -25 66 -27 202 -27 80 0
181 4 225 8 44 5 89 10 100 10 17 2 20 9 20 47 l-1 45 -69 -1 c-39 -1 -131 -3
-205 -4 -74 -2 -147 -1 -162 3 -113 24 -171 105 -184 258 l-5 69 38 1 c21 0
170 1 331 1 l292 0 -4 127 c-8 264 -93 376 -308 409 -32 5 -59 8 -60 7z m139
-141 c61 -38 100 -113 109 -210 3 -38 7 -73 8 -79 1 -6 -98 -11 -273 -13
l-273 -2 6 63 c19 195 111 280 294 273 71 -3 90 -8 129 -32z"/>
<path d="M6668 4525 c-2 -1 -40 -6 -85 -9 -46 -4 -91 -9 -101 -11 -11 -2 -43
-6 -73 -10 -30 -4 -57 -9 -61 -12 -5 -2 -8 -25 -8 -49 l0 -46 39 6 c68 9 243
20 321 20 93 -1 148 -27 175 -82 18 -39 30 -169 18 -188 -5 -6 -44 -15 -88
-18 -44 -4 -93 -9 -110 -11 -16 -2 -61 -7 -98 -10 -146 -13 -220 -44 -266
-111 -72 -104 -55 -312 31 -390 87 -79 264 -84 485 -12 61 20 63 20 90 2 44
-30 79 -43 137 -49 59 -7 63 -4 62 54 -1 31 -4 35 -48 48 -29 8 -52 22 -60 36
-9 16 -12 105 -13 317 -1 252 -4 303 -19 351 -30 94 -107 155 -209 165 -29 3
-66 7 -84 8 -18 2 -33 2 -35 1z m230 -655 l-1 -169 -76 -20 c-110 -29 -146
-35 -236 -36 -96 0 -127 15 -156 78 -22 51 -25 156 -5 195 39 75 77 88 306
108 41 3 76 7 77 8 1 1 22 2 47 4 l45 2 -1 -170z"/>
<path d="M11167 4524 c-1 -1 -45 -5 -97 -9 -52 -4 -129 -12 -170 -18 l-75 -12
-2 -48 -2 -48 47 5 c103 12 231 20 307 20 100 -1 153 -24 180 -81 20 -41 33
-187 19 -196 -5 -3 -50 -8 -99 -12 -50 -4 -99 -9 -109 -11 -10 -2 -51 -6 -90
-9 -184 -15 -277 -77 -302 -200 -6 -32 -6 -137 1 -170 3 -16 14 -45 23 -65 43
-90 101 -123 227 -126 100 -3 146 4 283 42 l93 27 22 -21 c27 -24 77 -41 144
-47 l50 -5 -1 46 c-1 45 -2 48 -38 58 -45 13 -78 39 -79 63 -1 10 -2 149 -3
308 -2 245 -5 298 -20 342 -33 100 -123 159 -254 166 -29 1 -54 2 -55 1z m213
-652 l0 -168 -52 -17 c-144 -44 -317 -57 -366 -26 -36 22 -63 74 -69 133 -8
75 3 121 38 160 37 43 77 53 279 72 41 3 76 7 77 8 2 1 23 3 48 5 l45 2 0
-169z"/>
<path d="M14327 4524 c-1 -1 -31 -5 -67 -8 -70 -7 -160 -43 -199 -79 -93 -86
-131 -266 -110 -522 12 -140 40 -218 102 -280 68 -67 120 -85 264 -92 265 -13
386 74 428 307 11 57 13 260 5 322 -29 209 -127 321 -299 344 -47 6 -121 11
-124 8z m157 -128 c74 -31 117 -97 143 -223 10 -48 5 -283 -7 -337 -15 -64
-51 -128 -85 -150 -42 -28 -125 -44 -209 -40 -132 6 -207 55 -237 156 -37 130
-27 414 18 501 18 36 59 76 93 90 69 28 220 30 284 3z"/>
<path d="M5104 4491 c-45 -15 -112 -45 -150 -67 -38 -21 -72 -40 -76 -42 -5
-2 -8 25 -8 61 l0 64 -52 -2 c-29 -2 -56 -3 -60 -4 -3 -1 -6 -212 -6 -471 0
-344 3 -470 12 -471 6 0 32 -1 59 -2 l47 -2 0 355 0 356 85 42 c47 24 127 57
178 73 l92 31 0 54 c0 66 -4 66 -121 25z"/>
<path d="M12210 4496 c-72 -26 -160 -68 -203 -98 -16 -11 -30 -18 -32 -16 -3
2 -6 31 -7 63 l-3 59 -57 1 -58 1 0 -475 0 -476 48 1 c27 0 53 4 59 7 7 5 11
112 11 329 1 178 1 335 1 350 1 23 12 32 94 71 50 25 130 57 177 72 l85 26 -2
47 c-1 26 -2 50 -2 55 -2 13 -44 6 -111 -17z"/>
<path d="M15400 4496 c-79 -27 -130 -51 -191 -88 -25 -15 -48 -28 -51 -28 -2
0 -3 24 -3 53 1 28 0 57 -2 63 -4 12 -97 13 -109 1 -9 -9 -11 -915 -3 -929 9
-14 109 -16 110 -3 1 5 3 161 4 345 1 184 3 341 4 347 2 23 277 143 327 143
16 0 23 29 22 83 -2 45 -13 46 -108 13z"/>
<path d="M2389 4410 c-4 -748 -4 -850 9 -851 16 -1 66 -1 91 0 19 1 19 14 19
471 0 259 -3 471 -6 471 -4 1 -31 2 -59 3 l-53 2 -1 -96z"/>
<path d="M2726 4501 c-2 -3 11 -53 28 -111 18 -58 81 -269 141 -470 l109 -365
123 1 c68 1 126 3 129 6 4 4 75 234 190 618 15 47 41 135 60 196 19 61 34 115
34 120 0 5 -26 9 -59 10 l-58 1 -53 -176 c-29 -97 -58 -194 -65 -216 -7 -22
-39 -128 -70 -235 -32 -107 -61 -202 -66 -211 -5 -10 -18 -14 -41 -11 l-33 4
-125 421 -125 421 -58 1 c-32 1 -59 -1 -61 -4z"/>
<path d="M5367 4495 c-2 -5 -3 -28 -3 -50 l2 -40 282 -3 c155 -1 282 -5 282
-8 0 -5 -35 -52 -77 -104 -7 -8 -119 -152 -249 -319 -228 -293 -236 -306 -239
-353 -2 -37 1 -50 14 -56 28 -13 692 -7 700 6 8 13 5 81 -3 90 -3 2 -131 4
-285 5 l-281 0 48 61 c26 34 102 131 167 216 66 85 125 162 132 170 88 107
223 288 224 300 0 8 2 28 3 43 1 15 -2 33 -6 40 -9 16 -706 18 -711 2z"/>
<path d="M7708 4499 c-7 -5 -6 -20 5 -50 9 -24 53 -168 97 -319 45 -151 99
-333 121 -404 21 -70 39 -134 39 -142 0 -23 20 -27 145 -28 l122 -1 56 190
c31 105 93 309 138 455 45 146 82 274 83 285 1 18 -5 20 -57 20 l-57 0 -21
-70 c-47 -153 -102 -336 -105 -350 -5 -26 -126 -420 -130 -424 -5 -5 -65 -4
-70 1 -2 2 -10 28 -18 58 -14 52 -82 281 -145 490 -16 52 -39 129 -51 170 -12
41 -25 86 -29 100 -7 22 -13 24 -60 25 -28 0 -57 -2 -63 -6z"/>
<path d="M12520 4033 c0 -260 3 -473 8 -474 11 -1 75 -2 93 0 14 1 16 49 16
471 0 259 -3 470 -6 471 -3 1 -30 2 -58 3 l-53 2 0 -473z"/>
<path d="M15709 4456 c-2 -181 1 -552 5 -606 19 -219 90 -298 279 -308 111 -5
218 18 309 68 26 14 28 13 28 -20 0 -16 5 -30 10 -31 47 -5 93 -2 99 6 4 6 7
219 7 474 l-1 465 -58 1 c-46 1 -57 -1 -58 -14 0 -9 0 -185 0 -391 l1 -376
-44 -22 c-136 -65 -312 -75 -386 -21 -64 48 -73 105 -75 504 -2 171 -3 312 -4
315 0 3 -26 5 -56 6 l-55 0 -1 -50z"/>
</g>
</svg>
